<svg width="120" height="125" viewBox="0 0 120 125" fill="none" xmlns="http://www.w3.org/2000/svg">
<path d="M54.7013 125C37.204 125 23.7127 120.06 14.2276 110.18C4.74255 100.359 0 86.4208 0 68.3663C0 54.3696 2.71003 42.2548 8.13008 32.0219C13.5501 21.789 21.2089 13.9085 31.1064 8.38038C41.0628 2.79346 52.7866 0 66.2778 0C83.4806 0 96.7067 4.58716 105.956 13.7615C115.265 22.9358 119.919 35.9327 119.919 52.7523C119.919 65.9845 117.032 76.2174 111.258 83.451C105.544 90.6257 97.4431 94.2131 86.9565 94.2131C75.9986 94.2131 70.4018 90.0082 70.1661 81.5984L68.8406 82.5688L71.8452 40.6669L77.5009 36.6972C78.797 35.4034 80.152 34.3449 81.5659 33.5215H87.4867L86.4263 41.9019L84.0403 76.2174C83.8636 79.5107 84.276 81.6867 85.2775 82.7452C86.3379 83.745 87.9286 84.2449 90.0495 84.2449C95.7641 84.2449 100.153 81.7161 103.217 76.6584C106.339 71.542 107.9 64.3672 107.9 55.1341C107.9 40.7257 104.159 29.5813 96.6773 21.7008C89.2542 13.7615 78.5613 9.79181 64.5988 9.79181C53.8765 9.79181 44.5682 12.1442 36.6737 16.849C28.8382 21.4949 22.7407 28.0522 18.3811 36.5208C14.0804 44.9894 11.93 55.0165 11.93 66.602C11.93 82.2454 15.9067 94.2425 23.86 102.594C31.8723 111.003 43.1248 115.208 57.6175 115.208C62.8608 115.208 68.3398 114.649 74.0544 113.532C79.7691 112.474 85.3659 110.944 90.8448 108.945L90.3146 116.708C86.4852 119.237 81.3303 121.236 74.8498 122.706C68.4282 124.235 61.712 125 54.7013 125ZM51.9618 95.0953C45.01 95.0953 39.6489 92.8311 35.8784 88.3027C32.1079 83.7744 30.2227 77.2171 30.2227 68.6309C30.2227 57.5159 33.2567 48.665 39.3249 42.0783C45.4519 35.4328 53.6409 32.1101 63.8918 32.1101C68.3693 32.1101 71.963 32.8452 74.673 34.3155C77.3831 35.7269 79.4156 37.9911 80.7706 41.108L77.4125 46.3126C75.2327 44.4307 72.8762 42.9605 70.3429 41.9019C67.8096 40.8433 65.2174 40.314 62.5663 40.314C57.323 40.314 53.2579 42.49 50.3712 46.8419C47.5433 51.135 46.1294 57.3394 46.1294 65.4552C46.1294 78.3933 50.2533 84.8624 58.5012 84.8624C61.5647 84.8624 64.1275 84.2743 66.1895 83.0981C68.2514 81.8631 70.1072 80.04 71.7568 77.6288L73.7893 81.5984C71.256 85.8916 68.1925 89.2143 64.5988 91.5667C61.0051 93.9191 56.7927 95.0953 51.9618 95.0953Z" fill="white"/>
</svg>
