<svg width="165" height="125" viewBox="0 0 165 125" fill="none" xmlns="http://www.w3.org/2000/svg">
<path fill-rule="evenodd" clip-rule="evenodd" d="M113.451 49.2285C102.82 52.1065 95 61.8209 95 73.3619V118.983H164.749V73.3619C164.749 61.5762 156.594 51.6954 145.618 49.0547C141.354 52.9564 135.674 55.3368 129.439 55.3368C123.296 55.3368 117.693 53.027 113.451 49.2285Z" fill="#C1C1C1"/>
<circle cx="129.874" cy="29.181" r="19.181" fill="#C1C1C1"/>
<path fill-rule="evenodd" clip-rule="evenodd" d="M18.6908 49.2285C8.06027 52.1065 0.23999 61.8209 0.23999 73.3619V118.983H69.9889V73.3619C69.9889 61.5762 61.8335 51.6954 50.8582 49.0547C46.5937 52.9564 40.9141 55.3368 34.6785 55.3368C28.536 55.3368 22.9331 53.027 18.6908 49.2285Z" fill="#C1C1C1"/>
<circle cx="35.1144" cy="29.181" r="19.181" fill="#C1C1C1"/>
<path fill-rule="evenodd" clip-rule="evenodd" d="M62.5202 44.4002C50.8508 46.5114 42 56.7221 42 69V125H122V69C122 56.424 112.714 46.0168 100.625 44.2609C95.6757 49.0517 88.9321 52 81.5 52C74.1402 52 67.4557 49.1088 62.5202 44.4002Z" fill="white"/>
<circle cx="82" cy="22" r="22" fill="white"/>
</svg>
