<svg width="174" height="125" viewBox="0 0 174 125" fill="none" xmlns="http://www.w3.org/2000/svg">
<path fill-rule="evenodd" clip-rule="evenodd" d="M159.534 0L167.439 44.8307L167.313 44.8531C168.639 59.545 157.191 73.8857 144.412 80.2788L149.498 109.123L171.915 105.17L173.584 114.635L114.801 125L113.132 115.535L136.545 111.406L131.459 82.5625C117.266 80.9258 101.604 71.367 97.8235 57.1095L97.6973 57.1318L97.174 54.164L97.1703 54.1431L97.1667 54.1227L89.7918 12.2975L159.534 0ZM103.901 51.4154L104.07 52.4688C104.094 52.6169 104.118 52.7651 104.145 52.9133C106.513 66.3429 117.984 75.8894 131.096 76.3123L133.598 76.3931L140.291 75.2131L142.616 74.281C154.792 69.399 162.307 56.5048 159.939 43.0753C159.921 42.9773 159.904 42.8795 159.885 42.782L159.857 42.632L159.655 41.5844L103.901 51.4154ZM158.445 34.6066L102.651 44.4446L97.9957 18.042L153.79 8.20406L158.445 34.6066Z" fill="white"/>
<path fill-rule="evenodd" clip-rule="evenodd" d="M14.0493 0L6.14451 44.8307L6.27051 44.8531C4.94504 59.545 16.393 73.8857 29.1722 80.2788L24.0862 109.123L1.66885 105.17L0 114.635L58.7829 125L60.452 115.535L37.0383 111.406L42.1243 82.5625C56.318 80.9258 71.9797 71.367 75.7603 57.1095L75.8865 57.1318L76.4097 54.164L76.4134 54.1431L76.4171 54.1227L83.792 12.2975L14.0493 0ZM69.683 51.4154L69.514 52.4688C69.4902 52.6169 69.4653 52.7651 69.4392 52.9133C67.0712 66.3429 55.5999 75.8894 42.4883 76.3123L39.9854 76.3931L33.2928 75.2131L30.9679 74.281C18.7917 69.399 11.2772 56.5048 13.6452 43.0753C13.6625 42.9773 13.6802 42.8795 13.6986 42.782L13.7269 42.632L13.9285 41.5844L69.683 51.4154ZM15.1384 34.6066L70.9326 44.4446L75.5881 18.042L19.7938 8.20406L15.1384 34.6066Z" fill="white"/>
</svg>
