<svg width="125" height="125" viewBox="0 0 125 125" fill="none" xmlns="http://www.w3.org/2000/svg">
<rect x="3" y="3" width="119" height="119" rx="27" stroke="white" stroke-width="6"/>
<path fill-rule="evenodd" clip-rule="evenodd" d="M41.7305 17.0665C41.3719 16.4455 41.5427 15.6755 42.112 15.3469L46.2353 12.9663L50.3585 10.5858C50.9278 10.2571 51.68 10.4941 52.0385 11.1151L62.2855 32.1874C62.644 32.8085 62.4732 33.5784 61.9039 33.9071L53.6574 38.6682C53.0881 38.9969 52.336 38.7598 51.9774 38.1388L50.6789 35.8898L46.9643 38.0344C45.8257 38.6918 45.484 40.2316 46.2011 41.4737L56.6794 63.9118L59.2763 68.4099L73.4692 88.7033C74.1863 89.9455 75.6907 90.4194 76.8293 89.7621L80.5439 87.6174L79.2454 85.3684C78.8869 84.7474 79.0577 83.9775 79.627 83.6488L87.8734 78.8877C88.4428 78.559 89.1949 78.796 89.5535 79.417L102.679 98.8273C103.038 99.4483 102.867 100.218 102.298 100.547L94.0512 105.308C93.4818 105.637 92.7297 105.4 92.3711 104.779L91.0726 102.53L83.857 106.696L73.0335 112.944C69.9411 114.73 66.0656 113.969 63.7933 110.033L58.2748 100.475C58.2748 100.475 44.2157 81.6032 42.268 78.2296C40.3203 74.8561 39.6711 73.7316 39.6711 73.7316L28.4098 48.7469L25.1636 43.1243C21.5928 36.9395 21.8975 31.5158 28.0823 27.945L35.8133 23.4815L43.029 19.3155L41.7305 17.0665Z" fill="white"/>
</svg>
